HIERARCHY
ROOT Hips
{
 OFFSET 0.000000 0.000000 0.000000
 CHANNELS 6 Xposition Yposition Zposition Yrotation Xrotation Zrotation
 JOINT Chest
 {
  OFFSET 0.000000 10.383400 0.001500
  CHANNELS 3 Yrotation Xrotation Zrotation
  JOINT Chest2
  {
   OFFSET 0.000000 10.418200 -0.003100
   CHANNELS 3 Yrotation Xrotation Zrotation
   JOINT Chest3
   {
    OFFSET 0.000000 10.375100 0.000000
    CHANNELS 3 Yrotation Xrotation Zrotation
    JOINT Chest4
    {
     OFFSET 0.000000 10.364600 0.000000
     CHANNELS 3 Yrotation Xrotation Zrotation
     JOINT Neck
     {
      OFFSET 0.000000 15.642200 0.000000
      CHANNELS 3 Yrotation Xrotation Zrotation
      JOINT Head
      {
       OFFSET 0.000000 9.697300 -0.006500
       CHANNELS 3 Yrotation Xrotation Zrotation
       End Site
       {
        OFFSET 0.000000 18.492200 -0.003400
       }
      }
     }
     JOINT RightCollar
     {
      OFFSET -3.166800 10.349300 0.000000
      CHANNELS 3 Yrotation Xrotation Zrotation
      JOINT RightShoulder
      {
       OFFSET -14.729700 0.000000 0.000000
       CHANNELS 3 Yrotation Xrotation Zrotation
       JOINT RightElbow
       {
        OFFSET 0.000000 -32.224300 0.000000
        CHANNELS 3 Yrotation Xrotation Zrotation
        JOINT RightWrist
        {
         OFFSET 0.000000 -26.084100 0.000000
         CHANNELS 3 Yrotation Xrotation Zrotation
         End Site
         {
          OFFSET 0.000000 -19.319400 0.000000
         }
        }
       }
      }
     }
     JOINT LeftCollar
     {
      OFFSET 3.166800 10.349300 0.000000
      CHANNELS 3 Yrotation Xrotation Zrotation
      JOINT LeftShoulder
      {
       OFFSET 14.729700 0.000000 0.000000
       CHANNELS 3 Yrotation Xrotation Zrotation
       JOINT LeftElbow
       {
        OFFSET 0.000000 -32.224300 0.000000
        CHANNELS 3 Yrotation Xrotation Zrotation
        JOINT LeftWrist
        {
         OFFSET 0.000000 -26.084100 0.000000
         CHANNELS 3 Yrotation Xrotation Zrotation
         End Site
         {
          OFFSET 0.000000 -19.319400 0.000000
         }
        }
       }
      }
     }
    }
   }
  }
 }
 JOINT RightHip
 {
  OFFSET -8.428900 -0.007500 -0.000800
  CHANNELS 3 Yrotation Xrotation Zrotation
  JOINT RightKnee
  {
   OFFSET 0.000000 -43.834600 0.000700
   CHANNELS 3 Yrotation Xrotation Zrotation
   JOINT RightAnkle
   {
    OFFSET 0.000000 -42.757000 0.001200
    CHANNELS 3 Yrotation Xrotation Zrotation
    JOINT RightToe
    {
     OFFSET 0.000000 -6.946900 15.649300
     CHANNELS 3 Yrotation Xrotation Zrotation
     End Site
     {
      OFFSET 0.000000 -1.580800 6.825800
     }
    }
   }
  }
 }
 JOINT LeftHip
 {
  OFFSET 8.428900 -0.007500 -0.000800
  CHANNELS 3 Yrotation Xrotation Zrotation
  JOINT LeftKnee
  {
   OFFSET 0.000000 -43.834600 0.000700
   CHANNELS 3 Yrotation Xrotation Zrotation
   JOINT LeftAnkle
   {
    OFFSET 0.000000 -42.757000 0.001200
    CHANNELS 3 Yrotation Xrotation Zrotation
    JOINT LeftToe
    {
     OFFSET 0.000000 -6.946900 15.649300
     CHANNELS 3 Yrotation Xrotation Zrotation
     End Site
     {
      OFFSET 0.000000 -1.580800 6.825800
     }
    }
   }
  }
 }
}
MOTION
Frames: 13
Frame Time: 0.008333
124.369095 126.867769 32.528680 -13.907312 -26.663200 -2.039308 -1.287404 21.795252 1.875154 -0.215266 2.974798 0.281169 -0.343079 4.837681 0.452008 -1.112440 18.471576 1.615056 4.381714 10.586813 -1.630296 8.984382 -15.970436 -5.103559 -4.284078 -11.069606 -10.039788 -24.465195 -28.020801 -14.482652 -93.798125 -12.592636 44.701385 -24.677426 -13.748505 11.443917 -3.302591 -12.106697 1.900533 31.950138 -28.542788 17.102349 82.098929 -12.092467 -47.499637 26.921528 -17.665660 -16.461720 -3.497229 -41.562600 -3.869572 -15.664600 72.516765 -14.994968 1.140242 -0.750324 4.579991 0.002245 0.007479 0.000997 -4.037168 -34.747281 -7.860039 1.670309 68.441606 2.197451 -11.565434 -3.119250 -0.441399 -0.003295 0.008415 -0.001463
124.373989 126.869818 32.521369 -13.881408 -26.728431 -2.059426 -1.319969 21.857313 1.872646 -0.230644 2.987880 0.280013 -0.335337 4.845948 0.453689 -1.179077 18.549269 1.610596 4.323583 10.453820 -1.680524 9.042500 -16.124998 -5.168006 -4.452902 -11.360354 -10.362925 -24.194198 -28.077801 -15.296644 -94.207767 -12.702151 45.039592 -24.718598 -13.819445 11.245602 -3.045079 -12.377219 2.221136 31.799700 -28.757244 17.966677 82.492847 -12.196594 -47.741633 26.993716 -17.724048 -16.324609 -3.487569 -41.499783 -3.878841 -15.707055 72.510802 -15.018380 1.141368 -0.726475 4.593422 0.005254 0.005337 0.002332 -4.105732 -34.677855 -7.783926 1.636394 68.399664 2.075795 -11.577133 -3.077419 -0.442221 -0.000710 0.007788 -0.000315
124.378580 126.871744 32.514234 -13.860517 -26.793179 -2.078363 -1.347498 21.918677 1.871848 -0.235677 3.002183 0.281831 -0.338210 4.853986 0.453618 -1.205586 18.609704 1.614435 4.295154 10.359801 -1.710957 9.034888 -16.299349 -5.228780 -4.630748 -11.637746 -10.653176 -23.914435 -28.093380 -16.095959 -94.649576 -12.815979 45.376152 -24.755187 -13.916031 11.055554 -2.824341 -12.616014 2.531696 31.663378 -28.962655 18.801356 82.842807 -12.268349 -47.959781 27.064542 -17.765056 -16.232811 -3.497728 -41.435292 -3.872710 -15.703696 72.492161 -15.019454 1.146205 -0.693461 4.615197 0.001523 0.003598 0.000676 -4.142122 -34.609078 -7.753325 1.610520 68.369325 2.020542 -11.563880 -3.050451 -0.461892 -0.000767 0.006511 -0.000341
124.383250 126.872413 32.504834 -13.846539 -26.841485 -2.095746 -1.367367 21.961017 1.876114 -0.229699 3.014131 0.282720 -0.365209 4.911840 0.457854 -1.204050 18.621253 1.615335 4.270607 10.266047 -1.737593 9.008592 -16.472508 -5.279035 -4.794123 -11.909533 -10.915013 -23.688626 -28.083620 -16.859529 -95.073084 -12.920972 45.706000 -24.774827 -14.021758 10.888059 -2.609991 -12.838675 2.836711 31.572293 -29.150408 19.576370 83.130035 -12.317013 -48.174796 27.118815 -17.786526 -16.185692 -3.476849 -41.393973 -3.872272 -15.746608 72.477488 -15.054890 1.149476 -0.651044 4.648750 0.000541 0.001745 0.000240 -4.188402 -34.562712 -7.709512 1.588512 68.345769 1.957815 -11.556623 -3.025970 -0.478027 0.000786 0.005699 0.000349
124.389920 126.870728 32.491341 -13.839823 -26.858583 -2.102910 -1.376387 21.971564 1.873525 -0.228711 3.025649 0.286115 -0.372751 4.943033 0.462197 -1.219387 18.659023 1.620419 4.235691 10.166773 -1.765378 8.997478 -16.639682 -5.329776 -4.931886 -12.174638 -11.154115 -23.579063 -28.066271 -17.563183 -95.426163 -13.007381 46.033562 -24.773102 -14.106668 10.740989 -2.389954 -13.053501 3.129885 31.542831 -29.309608 20.277317 83.353042 -12.355256 -48.406297 27.154655 -17.781251 -16.176803 -3.426641 -41.391815 -3.878516 -15.852062 72.466882 -15.145964 1.143467 -0.610129 4.684378 0.004758 0.000700 0.002112 -4.223071 -34.551375 -7.677136 1.566533 68.317138 1.900434 -11.554447 -2.991106 -0.493764 0.001334 0.004802 0.000592
124.393721 126.872708 32.484503 -13.811880 -26.915135 -2.124096 -1.399850 22.024788 1.877746 -0.229623 3.040405 0.287922 -0.379676 4.979748 0.468936 -1.231014 18.687641 1.626088 4.216382 10.073199 -1.793729 8.982254 -16.811953 -5.385955 -5.045022 -12.437688 -11.374517 -23.640918 -28.046753 -18.184631 -95.667988 -13.064575 46.379210 -24.747592 -14.156361 10.606138 -2.177158 -13.261375 3.401158 31.569899 -29.440318 20.906428 83.535481 -12.393672 -48.662119 27.169652 -17.740271 -16.198153 -3.432128 -41.341679 -3.870401 -15.875444 72.452179 -15.175541 1.144851 -0.568099 4.714050 0.004885 -0.000556 0.002168 -4.270729 -34.498968 -7.646491 1.544139 68.291205 1.854650 -11.587143 -2.957335 -0.507928 -0.000007 0.003304 -0.000003
124.394471 126.878133 32.483488 -13.776757 -27.007004 -2.154757 -1.425664 22.118816 1.890294 -0.235716 3.056665 0.290331 -0.369250 4.997691 0.472657 -1.237846 18.722773 1.634478 4.196690 9.981342 -1.820191 8.965435 -16.981280 -5.438156 -5.154111 -12.692934 -11.574506 -23.884332 -28.026927 -18.705234 -95.797718 -13.093944 46.762758 -24.695022 -14.164293 10.477822 -1.990669 -13.448780 3.650863 31.640352 -29.548751 21.461136 83.693012 -12.446243 -48.944581 27.162974 -17.668949 -16.230563 -3.454796 -41.251467 -3.851103 -15.886698 72.421123 -15.208950 1.151906 -0.509213 4.756869 -0.002365 -0.009819 -0.001050 -4.311560 -34.407868 -7.627733 1.544918 68.272575 1.842656 -11.596671 -2.930540 -0.522518 -0.000267 0.000338 -0.000118
124.398303 126.880784 32.477526 -13.754677 -27.061124 -2.166757 -1.433992 22.172633 1.895515 -0.238116 3.071930 0.292970 -0.367114 5.003912 0.473855 -1.229284 18.755666 1.643619 4.174231 9.894405 -1.839742 8.939569 -17.142330 -5.475093 -5.275813 -12.929967 -11.752273 -24.271584 -28.006425 -19.114380 -95.845961 -13.108954 47.194067 -24.619588 -14.140284 10.351781 -1.839795 -13.604253 3.879780 31.755646 -29.638726 21.939735 83.822368 -12.521786 -49.255713 27.138807 -17.578319 -16.251960 -3.466970 -41.201101 -3.850178 -15.898506 72.403817 -15.233247 1.161741 -0.475896 4.781299 -0.006342 -0.006862 -0.002815 -4.308088 -34.358625 -7.631937 1.525618 68.253675 1.836306 -11.649901 -2.893681 -0.538820 -0.002686 -0.002489 -0.001192
124.402924 126.881735 32.468115 -13.743250 -27.090648 -2.171529 -1.427402 22.193128 1.901543 -0.219360 3.077363 0.300013 -0.378402 5.017753 0.474492 -1.224328 18.781856 1.650179 4.150706 9.814079 -1.851595 8.907408 -17.292033 -5.495947 -5.406255 -13.149379 -11.911543 -24.749378 -27.980318 -19.422814 -95.843760 -13.116261 47.675213 -24.535935 -14.117956 10.217550 -1.723395 -13.729602 4.082692 31.924319 -29.708055 22.353580 83.918308 -12.618957 -49.596473 27.103619 -17.478536 -16.249640 -3.467012 -41.182408 -3.846740 -15.938514 72.392261 -15.285749 1.167523 -0.448005 4.797619 -0.006076 -0.005523 -0.002697 -4.293429 -34.330892 -7.646617 1.537533 68.231849 1.861120 -11.669062 -2.866849 -0.542807 -0.002778 -0.002708 -0.001233
124.407375 126.883230 32.459709 -13.728383 -27.123983 -2.175177 -1.391833 22.183838 1.926710 -0.237949 3.103946 0.297892 -0.378249 5.036184 0.477253 -1.232726 18.799266 1.651901 4.133489 9.743738 -1.855986 8.875642 -17.429356 -5.505944 -5.534759 -13.342710 -12.054313 -25.265719 -27.954672 -19.652480 -95.821409 -13.104389 48.203632 -24.474375 -14.134461 10.063605 -1.620651 -13.827307 4.262129 32.142740 -29.748505 22.710455 83.979350 -12.736348 -49.966402 27.070935 -17.379962 -16.219775 -3.480254 -41.158915 -3.846107 -15.948800 72.387637 -15.310024 1.168970 -0.429482 4.808007 -0.003749 -0.001952 -0.001664 -4.281800 -34.300484 -7.661885 1.557131 68.210144 1.896254 -11.713048 -2.836829 -0.550654 -0.003831 -0.001843 -0.001701
124.409640 126.889840 32.461120 -13.692769 -27.217145 -2.185659 -1.402910 22.249382 1.931995 -0.238288 3.111748 0.299187 -0.388395 5.054979 0.474900 -1.236547 18.806721 1.651688 4.127915 9.698562 -1.854965 8.847225 -17.565557 -5.508997 -5.658378 -13.501047 -12.176956 -25.781359 -27.934143 -19.824542 -95.812053 -13.053697 48.778734 -24.467132 -14.224661 9.880888 -1.510213 -13.899332 4.426725 32.396663 -29.758400 23.011323 84.010232 -12.872900 -50.357649 27.050819 -17.287463 -16.161967 -3.501392 -41.069782 -3.858580 -15.955952 72.384630 -15.327445 1.167342 -0.411897 4.814135 0.000761 -0.004395 0.000338 -4.294660 -34.206915 -7.690183 1.614999 68.193078 1.951937 -11.686289 -2.807743 -0.556865 -0.000423 -0.001566 -0.000188
124.414324 126.890067 32.450574 -13.684518 -27.234091 -2.185679 -1.390521 22.229454 1.941601 -0.238498 3.117161 0.300541 -0.400548 5.082191 0.472860 -1.229205 18.822169 1.659133 4.110099 9.673171 -1.860731 8.819590 -17.714243 -5.506261 -5.793361 -13.652062 -12.278878 -26.265609 -27.910529 -19.968862 -95.848864 -12.958141 49.391646 -24.513289 -14.402871 9.666297 -1.411236 -13.972929 4.574847 32.676724 -29.749286 23.257803 84.017736 -13.020119 -50.752754 27.036017 -17.208689 -16.083749 -3.483371 -41.066443 -3.882722 -15.980436 72.380736 -15.343199 1.169965 -0.380469 4.812746 -0.001931 -0.002594 -0.000857 -4.272748 -34.195404 -7.716079 1.641427 68.177725 1.997103 -11.683035 -2.782844 -0.563738 0.000066 -0.001187 0.000029
124.417198 126.893260 32.445951 -13.669076 -27.287944 -2.191223 -1.382262 22.237434 1.953426 -0.238545 3.119037 0.302026 -0.402616 5.105361 0.473083 -1.224931 18.836334 1.666884 4.096887 9.559406 -1.851316 8.778883 -17.743783 -5.492968 -5.912018 -13.781613 -12.361512 -26.708739 -27.867107 -20.116838 -95.950946 -12.830064 50.020245 -24.590140 -14.650451 9.428234 -1.329126 -14.031554 4.717273 32.987793 -29.731664 23.449527 84.003636 -13.163930 -51.136752 27.015548 -17.150145 -15.998344 -3.482022 -41.015359 -3.893476 -16.002057 72.361891 -15.378035 1.179233 -0.354403 4.829623 -0.005926 -0.002927 -0.002631 -4.256783 -34.143689 -7.747190 1.677580 68.163828 2.054821 -11.674241 -2.762945 -0.571985 -0.000099 -0.001464 -0.000044
